<?xml version="1.0" standalone="no"?>
<!DOCTYPE svg PUBLIC "-//W3C//DTD SVG 1.1//EN" "http://www.w3.org/Graphics/SVG/1.1/DTD/svg11.dtd">
<svg xmlns:dc="http://purl.org/dc/elements/1.1/" xmlns:cc="http://creativecommons.org/ns#" xmlns:rdf="http://www.w3.org/1999/02/22-rdf-syntax-ns#" xmlns:svg="http://www.w3.org/2000/svg" xmlns="http://www.w3.org/2000/svg" viewBox="0 0 343.79999 165.12" height="165.1199951171875" width="343.79998779296875" xml:space="preserve" id="svg2" version="1.1"><metadata id="metadata8"><rdf:RDF><cc:Work rdf:about=""><dc:format>image/svg+xml</dc:format><dc:type rdf:resource="http://purl.org/dc/dcmitype/StillImage"/></cc:Work></rdf:RDF></metadata><defs id="defs6"/><g transform="matrix(1.3333333,0,0,-1.3333333,0,165.12)" id="g10"><g transform="scale(0.1)" id="g12"><path id="path14" style="fill:#100f0d;fill-opacity:1;fill-rule:nonzero;stroke:none" d="m 99.9414,222.129 c -57.5937,0 -99.1289,38.219 -99.1289,95.047 0,57.851 42.8086,94.793 97.8477,94.793 28.2928,0 54.5308,-9.422 69.5698,-23.953 l -27.515,-31.34 c -8.41,9.679 -22.942,16.816 -40.52,16.816 -30.5817,0 -53.0036,-23.953 -53.0036,-56.316 0,-33.125 19.6211,-56.828 55.0426,-56.828 10.188,0 19.621,1.535 27.27,4.843 v 32.872 H 95.0977 V 333.23 H 169.504 V 237.672 C 151.926,228.5 127.715,222.129 99.9414,222.129"/><path id="path16" style="fill:#100f0d;fill-opacity:1;fill-rule:nonzero;stroke:none" d="m 205.176,226.719 v 180.406 h 121.289 v -36.941 h -79.246 v -33.899 h 74.922 v -34.91 h -74.922 v -37.453 h 83.836 V 226.719 H 205.176"/><path id="path18" style="fill:#100f0d;fill-opacity:1;fill-rule:nonzero;stroke:none" d="m 455.145,360.242 c -7.391,9.434 -20.899,15.547 -32.11,15.547 -11.211,0 -25.222,-3.828 -25.222,-18.098 0,-11.972 10.703,-15.8 27.773,-21.152 24.465,-7.891 56.062,-18.34 56.062,-54.277 0,-41.532 -33.386,-60.133 -69.058,-60.133 -25.735,0 -51.731,9.43 -67.531,25.992 l 28.546,29.055 c 8.661,-10.957 24.715,-19.113 38.985,-19.113 13.25,0 24.969,5.089 24.969,19.621 0,13.757 -13.758,18.086 -37.454,25.73 -22.937,7.395 -46.121,19.113 -46.121,51.731 0,40.007 36.184,56.57 69.817,56.57 20.387,0 43.316,-7.645 59.121,-22.168 l -27.777,-29.305"/><path id="path20" style="fill:#100f0d;fill-opacity:1;fill-rule:nonzero;stroke:none" d="M 584.336,369.93 V 226.719 H 540.762 V 369.93 h -50.965 v 37.195 H 635.305 V 369.93 h -50.969"/><path id="path22" style="fill:#100f0d;fill-opacity:1;fill-rule:nonzero;stroke:none" d="m 655.176,226.719 v 180.406 h 43.828 V 226.719 h -43.828"/><path id="path24" style="fill:#100f0d;fill-opacity:1;fill-rule:nonzero;stroke:none" d="m 825.898,372.73 c -30.578,0 -51.472,-23.445 -51.472,-55.046 0,-32.618 21.148,-56.055 51.472,-56.055 30.325,0 51.731,23.437 51.731,56.055 0,31.601 -21.152,55.046 -51.731,55.046 z m 0,-150.859 c -56.32,0 -98.105,38.731 -98.105,95.813 0,57.851 41.785,94.285 98.105,94.285 56.575,0 98.36,-36.434 98.36,-94.285 0,-57.082 -41.785,-95.813 -98.36,-95.813"/><path id="path26" style="fill:#100f0d;fill-opacity:1;fill-rule:nonzero;stroke:none" d="m 1067.71,226.719 -72.62,117.976 h -0.766 l 1.02,-117.976 h -42.297 v 180.406 h 49.683 l 72.38,-117.723 h 0.76 l -1.02,117.723 h 42.3 V 226.719 h -49.44"/><path id="path28" style="fill:#100f0d;fill-opacity:1;fill-rule:nonzero;stroke:none" d="m 1249.65,360.242 c -7.39,9.434 -20.9,15.547 -32.11,15.547 -11.21,0 -25.23,-3.828 -25.23,-18.098 0,-11.972 10.71,-15.8 27.78,-21.152 24.46,-7.891 56.06,-18.34 56.06,-54.277 0,-41.532 -33.39,-60.133 -69.06,-60.133 -25.73,0 -51.73,9.43 -67.53,25.992 l 28.55,29.055 c 8.66,-10.957 24.71,-19.113 38.98,-19.113 13.25,0 24.97,5.089 24.97,19.621 0,13.757 -13.76,18.086 -37.45,25.73 -22.94,7.395 -46.12,19.113 -46.12,51.731 0,40.007 36.18,56.57 69.81,56.57 20.39,0 43.32,-7.645 59.12,-22.168 l -27.77,-29.305"/><path id="path30" style="fill:#100f0d;fill-opacity:1;fill-rule:nonzero;stroke:none" d="m 1482.55,226.719 v 75.426 h -70.33 v -75.426 h -43.58 v 180.406 h 43.58 v -68.289 h 70.33 v 68.289 h 43.57 V 226.719 h -43.57"/><path id="path32" style="fill:#100f0d;fill-opacity:1;fill-rule:nonzero;stroke:none" d="m 1563.32,226.719 v 180.406 h 121.29 v -36.941 h -79.25 v -33.899 h 74.92 v -34.91 h -74.92 v -37.453 h 83.84 v -37.203 h -125.88"/><path id="path34" style="fill:#100f0d;fill-opacity:1;fill-rule:nonzero;stroke:none" d="m 1800.55,421.402 h -31.59 l 26.49,36.692 h 42.3 z m -7.4,-199.531 c -47.39,0 -76.95,29.563 -76.95,72.883 v 112.371 h 43.32 V 298.316 c 0,-19.363 9.44,-37.195 33.9,-37.195 24.71,0 33.88,17.832 33.88,37.195 v 108.809 h 43.58 V 294.754 c 0,-43.32 -30.58,-72.883 -77.73,-72.883"/><path id="path36" style="fill:#100f0d;fill-opacity:1;fill-rule:nonzero;stroke:none" d="m 1971.78,371.961 h -23.2 v -42.043 h 20.65 c 14.01,0 31.6,3.566 31.6,21.914 0,16.816 -16.05,20.129 -29.05,20.129 z m 30.83,-145.242 -38.99,71.597 h -14.77 v -71.597 h -42.81 v 180.406 h 68.79 c 34.66,0 69.07,-13.242 69.07,-54.531 0,-24.207 -14.28,-41.531 -37.46,-48.672 l 47.13,-77.203 h -50.96"/><path id="path38" style="fill:#100f0d;fill-opacity:1;fill-rule:nonzero;stroke:none" d="m 2092.56,428.785 v 21.914 h 85.62 v -21.914 z m -17.58,-202.066 v 180.406 h 121.29 v -36.941 h -79.25 v -33.899 h 74.92 v -34.91 h -74.92 v -37.453 h 83.84 v -37.203 h -125.88"/><path id="path40" style="fill:#100f0d;fill-opacity:1;fill-rule:nonzero;stroke:none" d="m 2339.98,226.719 -67.01,83.074 h -0.51 v -83.074 h -42.81 v 180.406 h 42.81 v -73.387 h 0.76 l 64.48,73.387 h 54.53 l -77.73,-83.066 82.31,-97.34 h -56.83"/><path id="path42" style="fill:#100f0d;fill-opacity:1;fill-rule:nonzero;stroke:none" d="m 2481.66,358.973 -22.93,-61.926 h 45.35 z m 48.42,-132.254 -14.02,35.418 h -69.82 l -13.25,-35.418 h -47.39 l 75.68,180.406 h 42.29 l 74.93,-180.406 h -48.42"/><path id="path44" style="fill:#100f0d;fill-opacity:1;fill-rule:nonzero;stroke:none" d="M 0,2.44141 V 93.3984 H 61.1563 V 74.7695 H 21.1953 V 57.6797 H 58.9688 V 40.0781 H 21.1953 V 21.1992 H 63.4688 V 2.44141 H 0"/><path id="path46" style="fill:#100f0d;fill-opacity:1;fill-rule:nonzero;stroke:none" d="M 135.828,2.44141 99.2148,61.9219 H 98.8281 L 99.3477,2.44141 H 78.0195 V 93.3984 H 103.07 l 36.481,-59.3593 h 0.39 l -0.515,59.3593 h 21.328 V 2.44141 h -24.926"/><path id="path48" style="fill:#100f0d;fill-opacity:1;fill-rule:nonzero;stroke:none" d="M 218.477,74.6484 V 2.44141 H 196.504 V 74.6484 h -25.691 v 18.75 h 73.359 v -18.75 h -25.695"/><path id="path50" style="fill:#100f0d;fill-opacity:1;fill-rule:nonzero;stroke:none" d="M 287.371,75.6719 H 275.676 V 54.4688 h 10.41 c 7.066,0 15.934,1.8007 15.934,11.0507 0,8.4805 -8.094,10.1524 -14.649,10.1524 z M 302.922,2.44141 283.262,38.5391 h -7.449 V 2.44141 H 254.219 V 93.3984 h 34.695 c 17.473,0 34.816,-6.6679 34.816,-27.5 0,-12.1992 -7.199,-20.9296 -18.886,-24.539 L 328.613,2.44141 h -25.691"/><path id="path52" style="fill:#100f0d;fill-opacity:1;fill-rule:nonzero;stroke:none" d="M 339.426,2.44141 V 93.3984 h 61.16 V 74.7695 H 360.625 V 57.6797 h 37.773 V 40.0781 H 360.625 V 21.1992 h 42.273 V 2.44141 h -63.472"/><path id="path54" style="fill:#100f0d;fill-opacity:1;fill-rule:nonzero;stroke:none" d="m 449.055,75.6719 h -9.641 V 54.2188 h 9.246 c 8.227,0 15.813,2.4414 15.813,11.0429 0,8.7383 -7.586,10.4102 -15.418,10.4102 z m 1.277,-38.9336 H 439.414 V 2.44141 H 417.441 V 93.3984 h 33.411 c 19.91,0 35.586,-7.1875 35.586,-28 0,-21.0781 -17.083,-28.6601 -36.106,-28.6601"/><path id="path56" style="fill:#100f0d;fill-opacity:1;fill-rule:nonzero;stroke:none" d="M 532.852,75.6719 H 521.16 V 54.4688 h 10.403 c 7.07,0 15.937,1.8007 15.937,11.0507 0,8.4805 -8.098,10.1524 -14.648,10.1524 z M 548.398,2.44141 528.738,38.5391 h -7.449 V 2.44141 H 499.695 V 93.3984 h 34.7 c 17.468,0 34.816,-6.6679 34.816,-27.5 0,-12.1992 -7.199,-20.9296 -18.891,-24.539 L 574.094,2.44141 h -25.696"/><path id="path58" style="fill:#100f0d;fill-opacity:1;fill-rule:nonzero;stroke:none" d="M 584.91,2.44141 V 93.3984 h 61.164 V 74.7695 H 606.113 V 57.6797 h 37.774 V 40.0781 H 606.113 V 21.1992 h 42.278 V 2.44141 H 584.91"/><path id="path60" style="fill:#100f0d;fill-opacity:1;fill-rule:nonzero;stroke:none" d="M 720.754,2.44141 684.133,61.9219 H 683.75 L 684.258,2.44141 H 662.93 V 93.3984 h 25.058 l 36.485,-59.3593 h 0.39 l -0.515,59.3593 h 21.328 V 2.44141 h -24.922"/><path id="path62" style="fill:#100f0d;fill-opacity:1;fill-rule:nonzero;stroke:none" d="M 764.465,2.44141 V 93.3984 h 61.16 V 74.7695 H 785.664 V 57.6797 h 37.774 V 40.0781 H 785.664 V 21.1992 h 42.274 V 2.44141 h -63.473"/><path id="path64" style="fill:#100f0d;fill-opacity:1;fill-rule:nonzero;stroke:none" d="M 880.383,0 C 856.484,0 841.582,14.8984 841.582,36.7383 V 93.3984 H 863.43 V 38.5391 c 0,-9.7578 4.754,-18.7578 17.09,-18.7578 12.46,0 17.078,9 17.078,18.7578 V 93.3984 H 919.57 V 36.7383 C 919.57,14.8984 904.148,0 880.383,0"/><path id="path66" style="fill:#100f0d;fill-opacity:1;fill-rule:nonzero;stroke:none" d="M 970.488,75.6719 H 958.801 V 54.4688 h 10.398 c 7.071,0 15.938,1.8007 15.938,11.0507 0,8.4805 -8.094,10.1524 -14.649,10.1524 z M 986.035,2.44141 966.379,38.5391 h -7.453 V 2.44141 h -21.59 V 93.3984 h 34.695 c 17.473,0 34.819,-6.6679 34.819,-27.5 0,-12.1992 -7.202,-20.9296 -18.889,-24.539 L 1011.73,2.44141 h -25.695"/><path id="path68" style="fill:#100f0d;fill-opacity:1;fill-rule:nonzero;stroke:none" d="m 1100.42,0.121094 c -29.03,0 -49.98,19.277306 -49.98,47.918006 0,29.1718 21.58,47.8125 49.34,47.8125 14.26,0 27.5,-4.7618 35.07,-12.0821 l -13.87,-15.8007 c -4.24,4.8828 -11.57,8.4726 -20.43,8.4726 -15.42,0 -26.72,-12.082 -26.72,-28.4023 0,-16.6993 9.89,-28.6407 27.74,-28.6407 5.15,0 9.89,0.7735 13.75,2.4414 v 16.5704 h -17.34 v 17.7304 h 37.52 V 7.96875 c -8.87,-4.62891 -21.08,-7.847656 -35.08,-7.847656"/><path id="path70" style="fill:#100f0d;fill-opacity:1;fill-rule:nonzero;stroke:none" d="m 1190.01,100.59 h -15.94 l 13.37,18.512 h 21.33 z M 1153.52,2.44141 V 93.3984 h 61.16 V 74.7695 h -39.96 V 57.6797 h 37.77 V 40.0781 h -37.77 V 21.1992 h 42.27 V 2.44141 h -63.47"/><path id="path72" style="fill:#100f0d;fill-opacity:1;fill-rule:nonzero;stroke:none" d="m 1289.36,2.44141 -36.63,59.48049 h -0.38 l 0.51,-59.48049 h -21.33 V 93.3984 h 25.06 l 36.49,-59.3593 h 0.39 l -0.52,59.3593 h 21.33 V 2.44141 h -24.92"/><path id="path74" style="fill:#100f0d;fill-opacity:1;fill-rule:nonzero;stroke:none" d="m 1369.56,100.59 h -15.94 l 13.37,18.512 h 21.33 z M 1333.07,2.44141 V 93.3984 h 61.16 V 74.7695 h -39.96 V 57.6797 h 37.77 V 40.0781 h -37.77 V 21.1992 h 42.27 V 2.44141 h -63.47"/><path id="path76" style="fill:#100f0d;fill-opacity:1;fill-rule:nonzero;stroke:none" d="m 1444.24,75.6719 h -11.69 V 54.4688 h 10.4 c 7.07,0 15.94,1.8007 15.94,11.0507 0,8.4805 -8.1,10.1524 -14.65,10.1524 z m 15.55,-73.23049 -19.66,36.09769 h -7.45 V 2.44141 h -21.6 V 93.3984 h 34.7 c 17.47,0 34.82,-6.6679 34.82,-27.5 0,-12.1992 -7.2,-20.9296 -18.89,-24.539 l 23.77,-38.91799 h -25.69"/><path id="path78" style="fill:#100f0d;fill-opacity:1;fill-rule:nonzero;stroke:none" d="m 1533.55,69.1211 -11.56,-31.2227 h 22.86 z m 24.41,-66.67969 -7.06,17.85939 h -35.21 l -6.68,-17.85939 h -23.89 l 38.15,90.95699 h 21.33 l 37.77,-90.95699 h -24.41"/><path id="path80" style="fill:#100f0d;fill-opacity:1;fill-rule:nonzero;stroke:none" d="M 1589.99,2.44141 V 93.3984 h 22.1 V 21.5781 h 35.2 V 2.44141 h -57.3"/><path id="path82" style="fill:#100f0d;fill-opacity:1;fill-rule:nonzero;stroke:none" d="M 1686.64,2.44141 V 93.3984 h 61.16 V 74.7695 h -39.96 V 57.6797 h 37.78 V 40.0781 h -37.78 V 21.1992 h 42.28 V 2.44141 h -63.48"/><path id="path84" style="fill:#100f0d;fill-opacity:1;fill-rule:nonzero;stroke:none" d="M 1803.59,74.6484 V 2.44141 h -21.97 V 74.6484 h -25.69 v 18.75 h 73.36 v -18.75 h -25.7"/><path id="path86" style="fill:#100f0d;fill-opacity:1;fill-rule:nonzero;stroke:none" d="m 1916.44,69.7617 c -3.73,4.7578 -10.54,7.8281 -16.2,7.8281 -5.65,0 -12.71,-1.9179 -12.71,-9.121 0,-6.0274 5.39,-7.9571 14,-10.6602 12.34,-3.9805 28.26,-9.25 28.26,-27.3594 0,-20.93748 -16.82,-30.328106 -34.81,-30.328106 -12.98,0 -26.08,4.757816 -34.05,13.109406 l 14.39,14.6484 c 4.37,-5.5273 12.46,-9.6406 19.66,-9.6406 6.68,0 12.59,2.5703 12.59,9.8906 0,6.9414 -6.94,9.1211 -18.89,12.9805 -11.56,3.7304 -23.25,9.6406 -23.25,26.082 0,20.168 18.24,28.5195 35.2,28.5195 10.28,0 21.84,-3.8515 29.81,-11.1718 l -14,-14.7774"/><path id="path88" style="fill:#100f0d;fill-opacity:1;fill-rule:nonzero;stroke:none" d="m 1975.95,75.6719 h -9.64 V 54.2188 h 9.25 c 8.22,0 15.81,2.4414 15.81,11.0429 0,8.7383 -7.59,10.4102 -15.42,10.4102 z m 1.28,-38.9336 h -10.92 V 2.44141 h -21.97 V 93.3984 h 33.4 c 19.92,0 35.59,-7.1875 35.59,-28 0,-21.0781 -17.08,-28.6601 -36.1,-28.6601"/><path id="path90" style="fill:#100f0d;fill-opacity:1;fill-rule:nonzero;stroke:none" d="m 2063.09,100.59 h -15.94 l 13.37,18.512 h 21.33 z M 2026.59,2.44141 V 93.3984 h 61.16 V 74.7695 h -39.96 V 57.6797 h 37.78 V 40.0781 h -37.78 V 21.1992 h 42.28 V 2.44141 h -63.48"/><path id="path92" style="fill:#100f0d;fill-opacity:1;fill-rule:nonzero;stroke:none" d="m 2149.33,0 c -28.01,0 -48.96,19.5313 -48.96,48.0391 0,29.1718 21.59,47.8125 49.34,47.8125 12.72,0 26.46,-4.6328 34.05,-13.3711 l -14.9,-14.9102 c -4.11,5.6602 -11.44,8.3516 -18.38,8.3516 -15.28,0 -26.21,-11.8125 -26.21,-27.8828 0,-16.5703 10.66,-27.8672 25.83,-27.8672 8.6,0 15.41,3.8476 19.27,9.25 l 15.29,-14.3906 C 2176.69,5.78125 2164.61,0 2149.33,0"/><path id="path94" style="fill:#100f0d;fill-opacity:1;fill-rule:nonzero;stroke:none" d="M 2194.06,2.44141 V 93.3984 h 22.1 V 2.44141 h -22.1"/><path id="path96" style="fill:#100f0d;fill-opacity:1;fill-rule:nonzero;stroke:none" d="m 2272.2,69.1211 -11.57,-31.2227 h 22.87 z m 24.4,-66.67969 -7.06,17.85939 h -35.2 l -6.68,-17.85939 h -23.9 l 38.15,90.95699 h 21.33 l 37.78,-90.95699 h -24.42"/><path id="path98" style="fill:#100f0d;fill-opacity:1;fill-rule:nonzero;stroke:none" d="M 2328.63,2.44141 V 93.3984 h 22.1 V 21.5781 h 35.21 V 2.44141 h -57.31"/><path id="path100" style="fill:#100f0d;fill-opacity:1;fill-rule:nonzero;stroke:none" d="M 2396.23,2.44141 V 93.3984 h 22.1 V 2.44141 h -22.1"/><path id="path102" style="fill:#100f0d;fill-opacity:1;fill-rule:nonzero;stroke:none" d="m 2485.16,69.7617 c -3.73,4.7578 -10.54,7.8281 -16.2,7.8281 -5.65,0 -12.71,-1.9179 -12.71,-9.121 0,-6.0274 5.39,-7.9571 14,-10.6602 12.34,-3.9805 28.27,-9.25 28.27,-27.3594 0,-20.93748 -16.83,-30.328106 -34.82,-30.328106 -12.98,0 -26.08,4.757816 -34.05,13.109406 l 14.39,14.6484 c 4.37,-5.5273 12.46,-9.6406 19.66,-9.6406 6.68,0 12.59,2.5703 12.59,9.8906 0,6.9414 -6.93,9.1211 -18.89,12.9805 -11.56,3.7304 -23.25,9.6406 -23.25,26.082 0,20.168 18.24,28.5195 35.21,28.5195 10.27,0 21.83,-3.8515 29.8,-11.1718 l -14,-14.7774"/><path id="path104" style="fill:#100f0d;fill-opacity:1;fill-rule:nonzero;stroke:none" d="m 2549.55,100.59 h -15.94 l 13.37,18.512 h 21.33 z M 2513.06,2.44141 V 93.3984 h 61.16 V 74.7695 h -39.96 V 57.6797 h 37.77 V 40.0781 h -37.77 V 21.1992 h 42.27 V 2.44141 h -63.47"/><path id="path106" style="fill:#100f0d;fill-opacity:1;fill-rule:nonzero;stroke:none" d="M 692.18,790.625 H 588.703 v 87.828 H 692.18 v -87.828"/><path id="path108" style="fill:#100f0d;fill-opacity:1;fill-rule:nonzero;stroke:none" d="M 823.484,790.625 H 720.008 v 87.828 h 103.476 v -87.828"/><path id="path110" style="fill:#100f0d;fill-opacity:1;fill-rule:nonzero;stroke:none" d="M 692.18,672.363 H 588.703 v 87.828 H 692.18 v -87.828"/><path id="path112" style="fill:#100f0d;fill-opacity:1;fill-rule:nonzero;stroke:none" d="M 823.484,672.363 H 720.008 v 87.828 h 103.476 v -87.828"/><path id="path114" style="fill:#100f0d;fill-opacity:1;fill-rule:nonzero;stroke:none" d="m 1840.01,572.973 h -79.57 v 79.566 h 79.57 v -79.566"/><path id="path116" style="fill:#100f0d;fill-opacity:1;fill-rule:nonzero;stroke:none" d="m 1934.36,572.973 h -79.57 v 79.566 h 79.57 v -79.566"/><path id="path118" style="fill:#100f0d;fill-opacity:1;fill-rule:nonzero;stroke:none" d="m 1840.01,674.277 h -79.57 v 79.567 h 79.57 v -79.567"/><path id="path120" style="fill:#100f0d;fill-opacity:1;fill-rule:nonzero;stroke:none" d="m 1934.36,674.277 h -79.57 v 79.567 h 79.57 v -79.567"/><path id="path122" style="fill:#100f0d;fill-opacity:1;fill-rule:nonzero;stroke:none" d="m 1293.49,929.32 h -36.31 v 36.305 h 36.31 V 929.32"/><path id="path124" style="fill:#100f0d;fill-opacity:1;fill-rule:nonzero;stroke:none" d="m 1339.35,929.32 h -36.3 v 36.305 h 36.3 V 929.32"/><path id="path126" style="fill:#100f0d;fill-opacity:1;fill-rule:nonzero;stroke:none" d="m 1293.49,883.559 h -36.31 v 36.304 h 36.31 v -36.304"/><path id="path128" style="fill:#100f0d;fill-opacity:1;fill-rule:nonzero;stroke:none" d="m 1339.35,883.559 h -36.3 v 36.304 h 36.3 v -36.304"/><path id="path130" style="fill:#edae0e;fill-opacity:1;fill-rule:nonzero;stroke:none" d="m 0.816406,475.406 -0.011718,20 2575.735312,1.739 0.02,-20 L 0.816406,475.406"/><path id="path132" style="fill:#edae0e;fill-opacity:1;fill-rule:nonzero;stroke:none" d="m 0.816406,164.281 -0.011718,20 2575.735312,1.739 0.02,-20 L 0.816406,164.281"/><path id="path134" style="fill:#100f0d;fill-opacity:1;fill-rule:nonzero;stroke:none" d="M 1077.44,796.539 689.234,1238.38 688.941,1238.04 309.137,788.012 V 897.625 H 194.207 V 651.832 L 93.8203,532.895 H 219.789 l 470.883,557.935 314.458,-357.834 72.31,63.543"/><path id="path136" style="fill:#100f0d;fill-opacity:1;fill-rule:nonzero;stroke:none" d="m 1515.33,916.965 -214.78,253.375 -0.09,0.1 -253.37,-298.893 37.59,-42.731 215.78,254.544 155.74,-183.719 59.13,17.324"/><path id="path138" style="fill:#edae0e;fill-opacity:1;fill-rule:nonzero;stroke:none" d="M 1035.27,888.207 934.691,996.734 1247.5,1139.04 Z"/><path id="path140" style="fill:#100f0d;fill-opacity:1;fill-rule:nonzero;stroke:none" d="M 2348.1,532.895 1846.09,886.902 1344.07,532.895 h -138.81 l 640.83,451.898 640.83,-451.898 H 2348.1"/><path id="path142" style="fill:#edae0e;fill-opacity:1;fill-rule:nonzero;stroke:none" d="M 1760.44,956.715 1157.4,532.895 H 773.527 l 323.323,240.335 663.59,183.485"/></g></g></svg>